<svg width="81" height="28" fill="none" xmlns="http://www.w3.org/2000/svg"><path fill-rule="evenodd" clip-rule="evenodd" d="M2.662 6.097v4.506h6.93c3.423 0 6.201-1.576 8.001-4.565 1.182-2.213 1.059-3.257 1.191-4.538H2.662v4.597Zm23.122 5.874v10.227H37.89v-3.364H29.306v-8.477c0-5.096.03-8.684.03-8.684h-3.552V11.97Zm45.197-3.876a6.372 6.372 0 0 0-3.474 3.788c-.98 2.95-.636 6.972 1.82 8.926 3.224 2.892 9.243 2.004 10.933-2.125 1.438-3.511.677-7.369-1.39-9.383-1.854-1.805-4.9-2.498-7.889-1.206Zm-29.79.853c-1.47 1.12-1.394 3.613-1.394 3.613h3.055s-.085-.48.162-1.131c.266-.701 1.294-1.281 2.727-1.281 2.623-.056 2.963 2.412 1.87 2.786-.889.303-1.832.226-3.244.522-3.817.803-5.035 2.184-5.035 4.51 0 2.078.74 3.664 2.887 4.168.728.171.699.32 2.863.24 2.164-.08 3.288-1.369 3.288-1.369s.48.964 1.051 1.232c.792.37 3.055.08 3.055.08v-2.281s-.611.082-.929-.176c-.317-.259-.135-.935-.135-4.369 0-3.433.238-5.198-1.11-6.546-1.492-1.246-2.804-1.52-4.91-1.453-1.7.054-2.795.385-4.2 1.455Zm12.91-1.106v3.008H61.397s-1.832 2.326-3.763 4.243c-2.138 2.123-3.79 4.326-3.79 4.326v2.78h11.872V19.04H58.34l3.424-3.947c1.42-1.64 3.965-4.525 3.965-4.525V7.842H54.1Zm22.835 4.177c.784 1.484.882 2.778.646 4.071-.184 1.01-.57 2.16-1.464 2.753-2.382 1.578-4.763.368-5.52-1.86-.457-1.343-.473-3.513.383-4.836 1.548-2.39 4.798-2.315 5.955-.128ZM4.338 15.093C2.217 16.703 1 20.083 1 22.221c.78 0 3.996-.023 8.8-.023h8.972V13.12h-8.185c-3.901 0-4.689.79-6.25 1.973Zm43.803 2.292c0 .763-.328 1.496-.928 1.955-.46.26-1.121.616-1.988.585-1.33 0-2.29-.596-2.504-1.294-.151-.49-.154-1.316.337-1.802.41-.405 1.132-.688 1.985-.852 2.022-.39 3.098-.6 3.098-.6v2.008Z" fill="#A16DFC"/></svg>